<svg width="736" height="584" viewBox="0 0 736 584" fill="none" xmlns="http://www.w3.org/2000/svg">
<path d="M13.7251 552.631L100.585 466.693C116.621 478.355 186.593 479.813 250.734 456.489L163.839 552.631H13.7251Z" fill="#826CFF"/>
<path d="M615.897 61.9726C615.552 83.8397 601.475 101.432 584.159 101.432C566.843 101.432 552.765 83.8397 552.42 61.9726H615.897Z" fill="#826CFF"/>
<path d="M524.746 5.16998C547.469 3.83092 564.484 5.25421 580.283 11.8184C594.173 17.5897 607.491 27.4901 623 43.7481H499.237C492.962 43.7481 487.875 48.8353 487.875 55.1104V55.1114C487.875 61.3851 492.961 66.4727 499.237 66.4727H537.853C540.158 93.7335 559.357 116.225 584.159 116.225C608.96 116.224 628.158 93.7333 630.463 66.4727H650.208C651.075 66.4727 651.919 66.3733 652.728 66.1885C680.151 79.7737 698.599 88.0652 723.693 98.9356C696.295 108.224 676.496 111.292 643.523 116.343L641.786 116.608L640.688 117.982C630.032 131.318 625.308 139.66 620.194 155.43L620.083 155.772L620.028 156.126C618.346 166.937 618.426 172.454 620.057 180.838L620.07 180.901L620.084 180.965C624.224 199.396 625.273 209.568 625.122 227.978V227.986C625.016 244.757 624.474 253.633 621.792 268.218C613.603 300.267 604.564 323.287 591.074 343.421C577.557 363.594 559.389 381.15 532.527 402.007C505.253 422.912 483.18 432.221 433.817 445.814C428.593 446.971 423.549 448.017 418.644 448.956L416.46 449.374L415.465 451.363L399.941 482.411L398.595 485.105L400.571 487.376L446.198 539.85L448.098 542.034L450.874 541.211C453.492 540.434 456.521 539.976 459.778 539.976C465.291 539.976 470.063 541.275 473.3 543.143C476.656 545.079 477.581 547.08 477.581 548.343C477.58 549.606 476.655 551.607 473.299 553.543C470.062 555.411 465.291 556.71 459.778 556.71C454.484 556.71 449.865 555.512 446.633 553.754C443.28 551.93 442.134 549.957 441.995 548.674L441.842 547.272L440.917 546.208L390.65 488.4C389.635 487.234 389.374 485.598 389.955 484.18L390.082 483.899L402.605 458.849L406.419 451.22L397.968 452.379C381.678 454.613 366.407 455.52 350.379 455.185L347.534 455.125L346.26 457.671L333.891 482.411L332.544 485.105L334.52 487.376L380.329 540.057L382.278 542.299L385.105 541.388C387.847 540.504 391.082 539.976 394.585 539.976C400.099 539.976 404.871 541.275 408.108 543.143C411.464 545.079 412.388 547.08 412.388 548.343C412.388 549.606 411.463 551.607 408.107 553.543C404.87 555.411 400.099 556.71 394.585 556.71C389.638 556.71 385.267 555.663 382.07 554.08C378.764 552.444 377.288 550.555 376.906 549.206L376.632 548.238L375.972 547.48L324.6 488.4C323.518 487.156 323.292 485.378 324.032 483.899L335.588 460.782L338.587 454.782L331.899 454.282C318.367 453.271 303.895 451.474 287.555 448.923C328.64 436.138 359.154 422.975 384.43 405.921C412.556 386.945 433.936 363.331 456.209 330.646L458.368 327.454C480.981 293.775 480.992 259.471 475.402 233.76C469.829 208.128 458.652 190.775 458.41 190.401L450.252 193.881C450.311 194.129 450.379 194.317 450.398 194.37C450.427 194.45 450.451 194.514 450.465 194.548C450.493 194.616 450.518 194.67 450.527 194.69C450.546 194.734 450.565 194.776 450.57 194.785C450.586 194.821 450.597 194.844 450.613 194.878C450.642 194.942 450.688 195.047 450.75 195.197C450.873 195.499 451.064 196.006 451.287 196.733C451.731 198.188 452.305 200.548 452.693 203.939C453.462 210.663 453.499 221.484 450.3 237.384C442.233 257.474 423.324 272.394 404.319 282.893C385.322 293.387 367.059 299.026 361.395 300.957C351.001 304.501 303.231 320.528 249.997 320.638L420.071 150.565L421.115 149.52L421.337 148.059C428.454 101.274 436.93 69.6478 452.197 47.6671C467.199 26.0683 489.159 13.2548 524.746 5.16998ZM383.174 332.541C298.364 393.223 229.599 423.761 122.171 446.928L213.527 357.082C253.378 361.046 285.806 360.024 317.889 353.357C339.205 348.928 360.274 342.027 383.174 332.541Z" stroke="#EDEFFF" stroke-width="9"/>
<rect y="552.631" width="735.988" height="30.8806" rx="10" fill="#EDEFFF"/>
<path d="M687.691 398.843C687.611 400.878 687.486 402.867 687.317 404.81C685.628 424.259 679.49 439.137 668.901 449.44C664.246 453.969 658.3 457.168 651.065 459.047V513.368C653.112 508.415 655.896 504.222 659.422 500.79C670.011 490.488 685.05 484.758 704.538 483.603C706.486 483.487 708.477 483.417 710.513 483.393C710.912 483.803 711.31 484.213 711.709 484.623C711.629 486.657 711.504 488.646 711.335 490.589C709.647 510.039 703.508 524.917 692.92 535.22C684.466 543.445 671.759 547.299 654.8 546.783C653.577 546.746 652.332 546.681 651.065 546.599V550.916C651.065 558.496 644.92 564.641 637.341 564.641C629.761 564.641 623.616 558.496 623.616 550.916V503.928C608.638 503.76 597.26 499.897 589.482 492.33C578.893 482.027 572.755 467.149 571.066 447.699C570.897 445.756 570.772 443.767 570.692 441.733C571.091 441.323 571.49 440.913 571.889 440.504C573.924 440.528 575.916 440.598 577.863 440.713C597.324 441.867 612.348 447.582 622.934 457.857C622.849 456.13 622.803 454.444 622.798 452.799C622.747 435.832 626.95 423.237 635.404 415.011C645.993 404.708 661.031 398.979 680.52 397.823C682.467 397.708 684.459 397.638 686.495 397.614C686.893 398.024 687.292 398.434 687.691 398.843Z" stroke="#EDEFFF" stroke-width="9" stroke-linejoin="round"/>
</svg>
