<svg width="736" height="584" viewBox="0 0 736 584" fill="none" xmlns="http://www.w3.org/2000/svg">
<path d="M13.7251 552.424L100.586 466.485C116.622 478.148 186.595 479.605 250.737 456.281L163.841 552.424H13.7251Z" fill="#6C59D9"/>
<path d="M615.904 61.7611C615.559 83.6282 601.481 101.22 584.165 101.22C566.849 101.22 552.771 83.6282 552.426 61.7611H615.904Z" fill="#6C59D9"/>
<path d="M524.118 0.487449C570.503 -2.2983 595.743 5.99296 633.272 48.0368H499.242C495.452 48.0368 492.38 51.1092 492.38 54.8992C492.38 58.6888 495.452 61.7617 499.242 61.7617H542.132C542.59 89.3328 561.233 111.514 584.165 111.514C607.096 111.514 625.74 89.3327 626.197 61.7617H650.216C651.241 61.7616 652.212 61.533 653.086 61.13C685.055 77.0064 704.673 85.6356 735.996 99.1347C702.177 111.668 681.363 114.889 644.211 120.58C633.856 133.539 629.411 141.407 624.482 156.607C622.865 166.999 622.967 171.983 624.482 179.768C628.697 198.537 629.783 209.052 629.628 227.805C629.521 244.799 628.967 253.96 626.197 268.98C609.664 333.754 589.364 363.373 535.27 405.37C507.314 426.797 484.596 436.298 434.907 449.976C429.604 451.151 424.48 452.213 419.495 453.167L403.971 484.216L449.598 536.689C452.652 535.783 456.113 535.268 459.783 535.268C472.101 535.268 482.086 541.029 482.086 548.135C482.085 555.241 472.1 561.003 459.783 561.003C447.942 561.003 438.257 555.678 437.526 548.953L387.259 491.145C384.979 488.524 384.508 484.786 386.061 481.679L398.584 456.629C382.068 458.894 366.561 459.816 350.289 459.475L337.92 484.216L383.728 536.897C386.943 535.861 390.646 535.268 394.59 535.268C406.908 535.268 416.893 541.029 416.893 548.135C416.892 555.241 406.907 561.003 394.59 561.003C383.506 561.003 374.311 556.337 372.58 550.225L321.208 491.145C318.928 488.524 318.457 484.786 320.01 481.679L331.567 458.562C312.769 457.157 292.245 454.263 267.635 449.976C368.786 420.855 408.904 392.859 454.636 324.737C498.118 259.979 454.816 192.913 454.636 192.635C454.668 192.769 461.356 205.442 454.636 238.469C437.5 281.962 374.003 301.206 362.851 305.007C351.7 308.809 297.538 327 239.328 324.737L416.893 147.172C431.135 53.5389 451.209 16.9447 524.118 0.487449Z" fill="#26272B"/>
<path d="M419.466 311.012C313.498 392.164 239.204 427.657 108.083 454.265L211.878 352.186C292.847 360.542 341.978 348.373 419.466 311.012Z" fill="#26272B"/>
<rect y="552.424" width="735.996" height="30.8809" rx="10" fill="#26272B"/>
<path d="M687.699 398.635C687.619 400.669 687.494 402.658 687.325 404.601C685.636 424.051 679.498 438.929 668.909 449.232C664.254 453.761 658.307 456.96 651.073 458.838V513.16C653.119 508.207 655.903 504.014 659.43 500.583C670.018 490.28 685.057 484.55 704.546 483.395C706.493 483.279 708.485 483.209 710.521 483.185C710.92 483.595 711.318 484.005 711.717 484.415C711.637 486.449 711.512 488.438 711.343 490.381C709.655 509.831 703.516 524.709 692.927 535.012C684.473 543.237 671.766 547.091 654.807 546.576C653.584 546.538 652.34 546.474 651.073 546.391V550.709C651.072 558.289 644.928 564.434 637.348 564.434C629.768 564.434 623.623 558.289 623.623 550.709V503.721C608.645 503.552 597.267 499.689 589.488 492.122C578.899 481.819 572.761 466.941 571.072 447.491C570.904 445.548 570.779 443.559 570.699 441.525C571.097 441.115 571.496 440.705 571.895 440.295C573.931 440.319 575.922 440.389 577.869 440.505C597.331 441.658 612.354 447.374 622.941 457.649C622.856 455.922 622.81 454.236 622.805 452.591C622.754 435.624 626.957 423.028 635.411 414.802C646 404.5 661.039 398.77 680.528 397.615C682.475 397.499 684.466 397.429 686.502 397.405C686.901 397.815 687.3 398.225 687.699 398.635Z" fill="#26272B"/>
</svg>
