<svg width="778" height="163" viewBox="0 0 778 163" fill="none" xmlns="http://www.w3.org/2000/svg">
<path d="M88.4104 162.491C84.4408 162.491 80.8231 161.508 77.5574 159.542C74.3198 157.548 71.7438 154.824 69.8294 151.369C67.9431 147.886 67 143.926 67 139.488C67 135.162 67.915 131.286 69.7449 127.86C71.5749 124.405 74.0946 121.68 77.304 119.686C80.5416 117.664 84.2437 116.653 88.4104 116.653C91.4791 116.653 94.3366 117.243 96.983 118.422C99.6575 119.574 101.839 121.189 103.529 123.267V118.001H116.493V161.143H103.529V155.456C101.558 157.731 99.2915 159.472 96.7296 160.68C94.1677 161.888 91.3946 162.491 88.4104 162.491ZM92.2533 151.495C94.5055 151.495 96.5044 150.99 98.2499 149.979C99.9954 148.939 101.361 147.521 102.346 145.723C103.332 143.926 103.824 141.875 103.824 139.572C103.824 137.241 103.317 135.19 102.304 133.421C101.319 131.623 99.9531 130.219 98.2077 129.208C96.4903 128.169 94.5055 127.649 92.2533 127.649C90.0292 127.649 88.0444 128.169 86.2989 129.208C84.5534 130.219 83.1739 131.623 82.1604 133.421C81.1469 135.219 80.6402 137.269 80.6402 139.572C80.6402 141.875 81.1328 143.926 82.1182 145.723C83.1317 147.521 84.5112 148.939 86.2567 149.979C88.0022 150.99 90.001 151.495 92.2533 151.495Z" fill="#8B8B8B"/>
<path d="M162.148 161.143V118.001H175.113V124.194C176.718 121.779 178.674 119.925 180.983 118.633C183.32 117.313 185.825 116.653 188.5 116.653C190.02 116.653 191.597 116.877 193.229 117.327C194.862 117.776 196.228 118.352 197.326 119.054L191.92 129.966C190.963 129.32 189.837 128.815 188.542 128.45C187.275 128.056 186.093 127.86 184.995 127.86C183.306 127.86 181.701 128.295 180.181 129.166C178.66 130.036 177.436 131.174 176.507 132.578C175.577 133.955 175.113 135.443 175.113 137.044V161.143H162.148Z" fill="#8B8B8B"/>
<path d="M249.855 162.491C245.548 162.491 242.198 161.129 239.805 158.405C237.412 155.652 236.215 151.818 236.215 146.903V127.818H230.43V118.001H236.215V101.823H249.18V118.001H258.681V127.818H249.18V145.976C249.18 147.605 249.503 148.841 250.151 149.684C250.827 150.526 251.77 150.948 252.98 150.948C254.332 150.948 255.627 150.498 256.865 149.599L260.117 159.964C258.653 160.75 257.006 161.368 255.176 161.817C253.374 162.267 251.601 162.491 249.855 162.491Z" fill="#8B8B8B"/>
<path d="M314.396 162.491C310.821 162.491 307.667 161.635 304.937 159.921C302.206 158.18 300.08 155.722 298.56 152.549L301.854 149.01C303.205 151.762 304.965 153.911 307.133 155.456C309.3 156.972 311.707 157.731 314.354 157.731C316.127 157.731 317.746 157.366 319.21 156.635C320.702 155.905 321.885 154.866 322.757 153.518C323.658 152.141 324.109 150.512 324.109 148.63C324.109 146.917 323.686 145.569 322.842 144.586C322.025 143.603 320.815 142.76 319.21 142.058C317.634 141.328 315.663 140.513 313.298 139.614C311.468 138.884 309.694 138.055 307.977 137.129C306.26 136.202 304.838 135.036 303.712 133.632C302.614 132.199 302.065 130.388 302.065 128.197C302.065 125.978 302.656 124.012 303.839 122.298C305.021 120.557 306.654 119.195 308.737 118.212C310.821 117.2 313.185 116.695 315.832 116.695C318.253 116.695 320.519 117.215 322.631 118.254C324.77 119.293 326.685 120.768 328.374 122.678L325.545 126.259C322.955 122.86 319.731 121.161 315.874 121.161C313.509 121.161 311.581 121.779 310.089 123.015C308.625 124.25 307.893 125.865 307.893 127.86C307.893 129.292 308.357 130.486 309.286 131.441C310.215 132.396 311.426 133.21 312.918 133.884C314.438 134.559 316.071 135.233 317.817 135.907C320.35 136.862 322.546 137.817 324.404 138.772C326.291 139.727 327.755 140.948 328.796 142.437C329.838 143.898 330.359 145.892 330.359 148.42C330.359 151.313 329.683 153.812 328.332 155.919C326.98 158.026 325.094 159.655 322.673 160.806C320.28 161.93 317.521 162.491 314.396 162.491Z" fill="#8B8B8B"/>
<path d="M385.412 162.491C382.174 162.491 379.654 161.41 377.853 159.247C376.079 157.057 375.192 153.981 375.192 150.021V122.635H370.8V118.001H375.192V101.865H381.358V118.001H392.126V122.635H381.358V149.684C381.358 152.071 381.822 153.897 382.751 155.161C383.68 156.425 385.003 157.057 386.721 157.057C388.382 157.057 389.846 156.593 391.113 155.666L392.675 160.553C391.718 161.143 390.592 161.607 389.297 161.944C388.002 162.309 386.707 162.491 385.412 162.491Z" fill="#8B8B8B"/>
<path d="M454.039 162.491C447.479 162.491 442.791 161.017 439.976 158.068C437.161 155.119 435.753 150.189 435.753 143.28V118.001H441.919V142.184C441.919 147.633 442.848 151.523 444.706 153.855C446.564 156.158 449.675 157.309 454.039 157.309C458.431 157.309 461.541 156.158 463.371 153.855C465.229 151.523 466.159 147.633 466.159 142.184V118.001H472.324V143.28C472.324 150.189 470.916 155.119 468.101 158.068C465.314 161.017 460.626 162.491 454.039 162.491Z" fill="#8B8B8B"/>
<path d="M538.615 162.491C534.56 162.491 530.901 161.508 527.635 159.542C524.397 157.576 521.821 154.866 519.907 151.411C518.021 147.956 517.077 144.01 517.077 139.572C517.077 135.162 518.021 131.244 519.907 127.818C521.793 124.363 524.355 121.638 527.593 119.644C530.858 117.65 534.56 116.653 538.699 116.653C542.556 116.653 546.047 117.566 549.172 119.391C552.297 121.217 554.746 123.745 556.52 126.975V88.6356H562.685V161.143H556.52V152.043C554.69 155.301 552.198 157.857 549.045 159.711C545.92 161.565 542.443 162.491 538.615 162.491ZM540.093 157.141C543.33 157.141 546.202 156.397 548.707 154.908C551.213 153.391 553.184 151.313 554.62 148.672C556.055 146.004 556.773 142.985 556.773 139.614C556.773 136.188 556.055 133.154 554.62 130.514C553.212 127.846 551.241 125.767 548.707 124.279C546.202 122.762 543.33 122.003 540.093 122.003C536.883 122.003 534.026 122.762 531.52 124.279C529.014 125.767 527.044 127.846 525.608 130.514C524.172 133.154 523.454 136.188 523.454 139.614C523.454 143.013 524.158 146.032 525.566 148.672C527.001 151.313 528.972 153.391 531.478 154.908C534.012 156.397 536.883 157.141 540.093 157.141Z" fill="#8B8B8B"/>
<path d="M611.228 161.143V118.001H617.394V161.143H611.228ZM614.353 109.364C613.593 109.364 612.903 109.182 612.284 108.816C611.693 108.451 611.214 107.96 610.848 107.342C610.482 106.724 610.299 106.05 610.299 105.32C610.299 104.589 610.482 103.929 610.848 103.339C611.214 102.721 611.693 102.23 612.284 101.865C612.903 101.5 613.593 101.317 614.353 101.317C615.085 101.317 615.747 101.5 616.338 101.865C616.929 102.23 617.408 102.707 617.774 103.297C618.168 103.887 618.365 104.561 618.365 105.32C618.365 106.05 618.168 106.724 617.774 107.342C617.408 107.96 616.929 108.451 616.338 108.816C615.747 109.182 615.085 109.364 614.353 109.364Z" fill="#8B8B8B"/>
<path d="M686.658 162.491C682.153 162.491 678.085 161.522 674.453 159.584C670.85 157.646 667.992 154.95 665.881 151.495C663.769 148.041 662.713 144.066 662.713 139.572C662.713 135.05 663.769 131.076 665.881 127.649C667.992 124.194 670.85 121.498 674.453 119.56C678.057 117.622 682.125 116.653 686.658 116.653C691.162 116.653 695.216 117.622 698.82 119.56C702.451 121.498 705.323 124.194 707.435 127.649C709.546 131.076 710.602 135.05 710.602 139.572C710.602 144.066 709.546 148.041 707.435 151.495C705.323 154.95 702.451 157.646 698.82 159.584C695.216 161.522 691.162 162.491 686.658 162.491ZM686.658 157.014C690.036 157.014 693.048 156.27 695.695 154.781C698.341 153.293 700.424 151.242 701.945 148.63C703.465 145.99 704.225 142.971 704.225 139.572C704.225 136.174 703.465 133.168 701.945 130.556C700.424 127.916 698.341 125.851 695.695 124.363C693.048 122.874 690.036 122.13 686.658 122.13C683.279 122.13 680.267 122.874 677.62 124.363C674.974 125.851 672.891 127.916 671.37 130.556C669.85 133.168 669.09 136.174 669.09 139.572C669.09 142.943 669.85 145.948 671.37 148.588C672.891 151.228 674.974 153.293 677.62 154.781C680.267 156.27 683.279 157.014 686.658 157.014Z" fill="#8B8B8B"/>
<path d="M134.641 70.875L134.641 53.7407C134.641 50.6796 131.018 48.9476 128.512 50.81L105.45 67.9444C102.56 70.0916 104.126 74.5678 107.768 74.5678H130.83C132.934 74.5678 134.641 72.9145 134.641 70.875Z" fill="#826CFF"/>
<path d="M419.988 4.13549C422.647 4.56322 425.162 5.34693 427.532 6.48799C430.949 8.10265 433.883 10.4004 436.333 13.3813C438.848 16.3001 440.814 19.9028 442.233 24.1878C443.651 28.4106 444.36 33.2854 444.36 38.8122C444.36 44.3392 443.651 49.2453 442.233 53.5303C440.814 57.8154 438.848 61.4495 436.333 64.4304C433.883 67.3491 430.981 69.6155 427.629 71.2301C425.259 72.3272 422.729 73.0984 420.037 73.5442C418.191 73.8501 416.603 72.3956 416.603 70.581V67.5057C416.603 65.9114 417.849 64.6034 419.426 64.145C420.588 63.8071 421.711 63.3434 422.792 62.7531C424.727 61.6353 426.403 60.0515 427.822 58.0021C429.24 55.8906 430.369 53.2824 431.207 50.1773C432.045 47.0101 432.497 43.2215 432.562 38.8122C432.497 34.4031 432.045 30.6459 431.207 27.5408C430.369 24.3736 429.208 21.7654 427.725 19.716C426.307 17.6045 424.63 16.0207 422.695 14.965C421.659 14.3662 420.595 13.9015 419.503 13.57C417.902 13.0836 416.603 11.7632 416.603 10.1372V7.08648C416.603 5.29074 418.159 3.84143 419.988 4.13549Z" fill="#EDEFFF"/>
<path d="M409.3 4.18C411.145 3.86758 412.734 5.32245 412.734 7.13712V10.306C412.734 11.9001 411.486 13.2068 409.91 13.6652C408.747 14.0031 407.625 14.4682 406.543 15.0586C404.609 16.1143 402.932 17.6667 401.514 19.716C400.095 21.7654 398.967 24.3737 398.128 27.5408C397.29 30.708 396.84 34.4652 396.776 38.8122C396.84 43.2215 397.29 47.0101 398.128 50.1773C398.967 53.2823 400.095 55.8906 401.514 58.0021C402.997 60.1136 404.706 61.7289 406.64 62.8467C407.675 63.4114 408.737 63.8505 409.827 64.1665C411.436 64.6326 412.734 65.9548 412.734 67.5809V70.5764C412.734 72.3925 411.144 73.8471 409.297 73.5366C406.64 73.0896 404.109 72.3214 401.707 71.2301C398.29 69.6155 395.323 67.349 392.809 64.4304C390.359 61.4495 388.425 57.8154 387.006 53.5303C385.652 49.2454 384.975 44.3392 384.975 38.8122C384.975 33.2854 385.652 28.4106 387.006 24.1878C388.425 19.9028 390.359 16.3001 392.809 13.3813C395.323 10.4005 398.258 8.13416 401.61 6.5816C404.028 5.43925 406.592 4.63849 409.3 4.18Z" fill="#EDEFFF"/>
<path d="M488.184 4.81071C489.976 4.81076 491.428 6.21814 491.429 7.95351V37.6951C491.429 42.4767 491.75 46.5446 492.395 49.898C493.04 53.1894 493.976 55.9221 495.201 58.0957C496.426 60.2069 497.876 61.791 499.552 62.8467C500.466 63.4009 501.434 63.835 502.455 64.1496C504.054 64.6427 505.357 65.9548 505.357 67.5809V70.5764C505.357 72.3925 503.765 73.8504 501.919 73.5335C499.312 73.0859 496.88 72.3178 494.621 71.2301C491.462 69.6155 488.785 67.3491 486.592 64.4304C484.4 61.4495 482.691 57.8154 481.466 53.5303C480.241 49.2454 479.629 44.3391 479.629 38.8122V7.95351C479.629 6.21829 481.082 4.811 482.873 4.81071H488.184Z" fill="#EDEFFF"/>
<path d="M531.804 4.81071C533.596 4.81071 535.048 6.2181 535.049 7.95351V38.8122C535.049 44.3392 534.436 49.2453 533.211 53.5303C531.986 57.8154 530.245 61.4495 527.988 64.4304C525.796 67.3488 523.12 69.6156 519.961 71.2301C517.75 72.3167 515.348 73.0842 512.758 73.532C510.912 73.8508 509.322 72.3924 509.322 70.5764V67.4965C509.322 65.9062 510.567 64.6085 512.131 64.125C513.161 63.8063 514.127 63.3805 515.028 62.8467C516.769 61.791 518.253 60.2071 519.478 58.0957C520.703 55.9844 521.637 53.2827 522.282 49.9916C522.991 46.6382 523.346 42.5388 523.346 37.6951V7.95351C523.347 6.2181 524.799 4.81071 526.591 4.81071H531.804Z" fill="#EDEFFF"/>
<path d="M202.102 61.5669C204.43 61.5669 206.001 63.873 205.085 65.9466L202.606 71.5585C202.095 72.7148 200.923 73.4657 199.624 73.466H160.351C158.023 73.466 156.453 71.1599 157.368 69.0863L159.848 63.4744C160.358 62.3178 161.532 61.5669 162.831 61.5669H202.102Z" fill="#EDEFFF"/>
<path d="M232.164 4.81071C233.956 4.8108 235.408 6.21816 235.409 7.95351V61.8462C235.409 63.5817 236.861 64.989 238.653 64.989H264.952C266.743 64.989 268.196 66.3961 268.196 68.1318V70.3232C268.196 72.0587 266.743 73.466 264.952 73.466H226.853C225.061 73.4657 223.609 72.0585 223.608 70.3232V7.95351C223.609 6.21826 225.061 4.81096 226.853 4.81071H232.164Z" fill="#EDEFFF"/>
<path d="M312.137 4.81071C313.929 4.81071 315.381 6.2181 315.382 7.95351V70.3232C315.381 72.0587 313.929 73.466 312.137 73.466H307.02C305.229 73.466 303.776 72.0587 303.776 70.3232V7.95351C303.776 6.2181 305.229 4.81071 307.02 4.81071H312.137Z" fill="#EDEFFF"/>
<path d="M324.28 4.81071C327.31 4.81071 330.244 5.15275 333.081 5.8358C335.918 6.51889 338.433 7.60644 340.625 9.09677C342.817 10.5871 344.559 12.5432 345.848 14.965C347.138 17.3248 347.782 20.1506 347.782 23.442C347.782 25.367 347.461 27.137 346.816 28.7516C346.171 30.304 345.366 31.6706 344.399 32.8504C343.431 34.0303 342.303 35.0248 341.013 35.8321C340.363 36.2274 340.49 38.0386 341.202 38.315C341.522 38.4392 341.846 38.5732 342.173 38.7186C343.849 39.4638 345.398 40.5198 346.816 41.886C348.299 43.2522 349.524 44.9292 350.491 46.9163C351.458 48.8415 351.942 51.0777 351.942 53.6239C351.942 56.7288 351.458 59.3989 350.491 61.6344C349.524 63.8701 348.299 65.7344 346.816 67.2249C345.398 68.6531 343.817 69.8021 342.076 70.6715C340.4 71.4786 338.756 72.0998 337.145 72.5345C335.597 72.9692 334.21 73.2482 332.985 73.3724C331.76 73.4344 330.954 73.466 330.567 73.466H322.593C320.801 73.466 319.349 72.0587 319.348 70.3232V68.4111C319.348 66.6754 320.801 65.2683 322.593 65.2683H329.889C333.307 65.2683 335.983 64.2124 337.918 62.1009C339.852 59.9895 340.82 57.1637 340.82 53.6239C340.82 50.2705 339.82 47.4447 337.821 45.147C335.822 42.8492 332.888 41.7003 329.02 41.7003H322.593C320.801 41.7003 319.348 40.2932 319.348 38.5575V37.2976C319.348 35.5619 320.801 34.1548 322.593 34.1548H323.99C325.408 34.1548 326.86 34.1233 328.343 34.0612C329.826 33.999 331.212 33.6585 332.502 33.0376C333.791 32.4167 334.823 31.3606 335.597 29.8703C336.435 28.3798 336.853 26.2366 336.853 23.442C336.853 22.3242 336.693 21.1752 336.37 19.9953C336.048 18.7534 335.403 17.6358 334.436 16.6423C333.469 15.6487 332.083 14.8402 330.277 14.2192C328.472 13.5982 326.086 13.2877 323.12 13.2877H322.593C320.801 13.2877 319.348 11.8806 319.348 10.1449V7.95351C319.349 6.2181 320.801 4.81071 322.593 4.81071H324.28Z" fill="#EDEFFF"/>
<path d="M579.937 4.81071C581.729 4.81103 583.181 6.2183 583.182 7.95351V70.3232C583.181 72.0585 581.729 73.4656 579.937 73.466H574.819C573.027 73.4658 571.575 72.0586 571.574 70.3232V7.95351C571.575 6.21819 573.027 4.81084 574.819 4.81071H579.937Z" fill="#EDEFFF"/>
<path d="M592.08 4.81071C595.11 4.81077 598.109 5.27723 601.075 6.2087C604.04 7.14024 606.684 8.53821 609.005 10.4012C611.391 12.2642 613.293 14.5306 614.711 17.2008C616.194 19.8091 616.935 22.7593 616.935 26.0507C616.935 31.0184 615.743 35.2411 613.358 38.7186C611.65 41.2092 609.511 43.2394 606.942 44.8063C605.291 45.8139 604.553 47.8944 605.536 49.5282L617.092 68.741C618.352 70.836 616.792 73.4655 614.29 73.466H609.615C608.408 73.466 607.299 72.8168 606.74 71.781L594.472 49.0831C594.309 48.7824 594 48.5866 593.658 48.6581C593.583 48.6737 593.492 48.6871 593.415 48.6872H590.391C588.599 48.6872 587.147 47.2799 587.147 45.5444V43.6323C587.147 41.8966 588.599 40.4895 590.391 40.4895H593.723C595.141 40.4895 596.561 40.2721 597.979 39.8373C599.398 39.3405 600.687 38.5636 601.848 37.5079C603.008 36.4521 603.944 34.9927 604.653 33.1297C605.362 31.2047 605.716 28.8449 605.716 26.0507C605.716 24.9329 605.555 23.6595 605.233 22.2312C604.911 20.7407 604.234 19.3429 603.202 18.0387C602.235 16.6725 600.847 15.5551 599.042 14.6857C597.237 13.7543 594.851 13.2877 591.885 13.2877H590.391C588.599 13.2877 587.147 11.8806 587.147 10.1449V7.95351C587.147 6.2181 588.599 4.81071 590.391 4.81071H592.08Z" fill="#EDEFFF"/>
<path d="M664.048 4.81071C665.84 4.81071 667.292 6.2181 667.292 7.95351V70.3232C667.292 72.0587 665.84 73.466 664.048 73.466H658.738C656.946 73.466 655.494 72.0587 655.494 70.3232V7.95351C655.494 6.2181 656.946 4.81071 658.738 4.81071H664.048Z" fill="#EDEFFF"/>
<path d="M703.799 4.81071C705.591 4.81071 707.043 6.2181 707.044 7.95351V70.3232C707.043 72.0587 705.591 73.466 703.799 73.466H697.127C695.963 73.466 694.888 72.862 694.31 71.8838L671.687 33.5763C671.406 33.1012 671.258 32.5629 671.258 32.0156V23.2716C671.258 20.048 675.67 18.9143 677.32 21.714L689.182 41.8446C690.832 44.6442 695.245 43.5106 695.245 40.287V7.95351C695.245 6.2181 696.698 4.81071 698.489 4.81071H703.799Z" fill="#EDEFFF"/>
<path d="M773.998 61.5669C776.326 61.5673 777.897 63.8731 776.981 65.9466L774.502 71.5585C773.991 72.715 772.817 73.4659 771.519 73.466H732.246C729.918 73.4656 728.347 71.1597 729.263 69.0863L731.742 63.4744C732.253 62.3179 733.427 61.567 734.725 61.5669H773.998Z" fill="#EDEFFF"/>
<path d="M181.451 33.1834C183.816 33.1836 185.386 35.5578 184.397 37.6398L182.127 42.4231C181.598 43.5382 180.446 44.2538 179.179 44.2538H160.497C158.132 44.2535 156.562 41.8794 157.551 39.7974L159.821 35.0142C160.35 33.899 161.502 33.1834 162.769 33.1834H181.451Z" fill="#EDEFFF"/>
<path d="M753.345 33.1834C755.711 33.1834 757.282 35.5578 756.293 37.6398L754.022 42.4231C753.492 43.5381 752.342 44.2536 751.075 44.2538H732.393C730.027 44.2538 728.457 41.8795 729.445 39.7974L731.715 35.0142C732.245 33.899 733.396 33.1835 734.663 33.1834H753.345Z" fill="#EDEFFF"/>
<path d="M202.102 4.81071C204.43 4.81071 206.001 7.11676 205.085 9.19038L202.606 14.8023C202.095 15.9584 200.922 16.708 199.624 16.7083H160.351C158.023 16.7081 156.453 14.4035 157.368 12.3301L159.848 6.71818C160.358 5.56168 161.532 4.81071 162.831 4.81071H202.102Z" fill="#EDEFFF"/>
<path d="M773.998 4.81071C776.326 4.8112 777.895 7.11698 776.979 9.19038L774.502 14.8023C773.991 15.9587 772.817 16.7082 771.519 16.7083H732.246C729.918 16.7078 728.349 14.4035 729.264 12.3301L731.742 6.71818C732.253 5.56171 733.427 4.81073 734.725 4.81071H773.998Z" fill="#EDEFFF"/>
<path fill-rule="evenodd" clip-rule="evenodd" d="M59.0693 3.99259C67.5857 -3.59618 81.2841 2.90115 80.3252 14.0745L78.9694 29.859L113.747 3.52739C122.183 -2.85966 134.488 3.11091 134.266 13.483L133.859 32.4856C133.78 36.184 131.989 39.6515 128.981 41.9291L90.1617 71.3212C81.7259 77.7083 69.4193 71.7377 69.6414 61.3656L69.9428 47.2387L43.1832 71.0868C40.8367 73.1778 37.7648 74.337 34.5771 74.3348L12.7184 74.3204C1.14853 74.3121 -4.38701 60.5392 4.12967 52.9498L59.0693 3.99259Z" fill="#EDEFFF"/>
</svg>
