<svg width="778" height="163" viewBox="0 0 778 163" fill="none" xmlns="http://www.w3.org/2000/svg">
<path d="M88.8235 162.28C84.8539 162.28 81.2362 161.297 77.9705 159.331C74.7329 157.336 72.1569 154.612 70.2425 151.157C68.3562 147.674 67.4131 143.714 67.4131 139.276C67.4131 134.951 68.3281 131.075 70.158 127.648C71.988 124.193 74.5077 121.469 77.7171 119.474C80.9547 117.452 84.6568 116.441 88.8235 116.441C91.8922 116.441 94.7497 117.031 97.3961 118.211C100.071 119.362 102.252 120.977 103.942 123.056V117.789H116.906V160.932H103.942V155.244C101.971 157.519 99.7046 159.26 97.1427 160.468C94.5808 161.676 91.8077 162.28 88.8235 162.28ZM92.6664 151.283C94.9186 151.283 96.9175 150.778 98.663 149.767C100.408 148.728 101.774 147.309 102.759 145.511C103.745 143.714 104.237 141.664 104.237 139.36C104.237 137.029 103.731 134.979 102.717 133.209C101.732 131.412 100.366 130.007 98.6207 128.996C96.9034 127.957 94.9186 127.437 92.6664 127.437C90.4423 127.437 88.4575 127.957 86.712 128.996C84.9665 130.007 83.587 131.412 82.5735 133.209C81.56 135.007 81.0532 137.057 81.0532 139.36C81.0532 141.664 81.5459 143.714 82.5313 145.511C83.5448 147.309 84.9243 148.728 86.6698 149.767C88.4153 150.778 90.4141 151.283 92.6664 151.283Z" fill="#535353"/>
<path d="M162.562 160.932V117.789H175.526V123.982C177.131 121.567 179.087 119.713 181.396 118.421C183.733 117.101 186.238 116.441 188.913 116.441C190.433 116.441 192.01 116.666 193.643 117.115C195.275 117.564 196.641 118.14 197.739 118.842L192.333 129.754C191.376 129.108 190.25 128.603 188.955 128.238C187.688 127.844 186.506 127.648 185.408 127.648C183.719 127.648 182.114 128.083 180.594 128.954C179.073 129.825 177.849 130.962 176.92 132.367C175.991 133.743 175.526 135.231 175.526 136.832V160.932H162.562Z" fill="#535353"/>
<path d="M250.268 162.28C245.961 162.28 242.611 160.917 240.218 158.193C237.825 155.44 236.628 151.606 236.628 146.691V127.606H230.843V117.789H236.628V101.611H249.593V117.789H259.094V127.606H249.593V145.764C249.593 147.393 249.917 148.629 250.564 149.472C251.24 150.314 252.183 150.736 253.393 150.736C254.745 150.736 256.04 150.286 257.279 149.388L260.53 159.752C259.066 160.538 257.419 161.156 255.589 161.606C253.788 162.055 252.014 162.28 250.268 162.28Z" fill="#535353"/>
<path d="M314.809 162.28C311.234 162.28 308.08 161.423 305.35 159.71C302.619 157.968 300.493 155.511 298.973 152.337L302.267 148.798C303.618 151.55 305.378 153.699 307.546 155.244C309.713 156.761 312.12 157.519 314.767 157.519C316.54 157.519 318.159 157.154 319.623 156.423C321.115 155.693 322.298 154.654 323.171 153.306C324.071 151.929 324.522 150.3 324.522 148.419C324.522 146.705 324.1 145.357 323.255 144.374C322.439 143.391 321.228 142.548 319.623 141.846C318.047 141.116 316.076 140.301 313.711 139.402C311.881 138.672 310.108 137.844 308.39 136.917C306.673 135.99 305.251 134.824 304.125 133.42C303.027 131.987 302.478 130.176 302.478 127.985C302.478 125.766 303.069 123.8 304.252 122.087C305.434 120.345 307.067 118.983 309.15 118C311.234 116.989 313.598 116.483 316.245 116.483C318.666 116.483 320.932 117.003 323.044 118.042C325.183 119.081 327.098 120.556 328.787 122.466L325.958 126.047C323.368 122.648 320.144 120.949 316.287 120.949C313.922 120.949 311.994 121.567 310.502 122.803C309.038 124.039 308.306 125.654 308.306 127.648C308.306 129.08 308.77 130.274 309.699 131.229C310.628 132.184 311.839 132.999 313.331 133.673C314.851 134.347 316.484 135.021 318.23 135.695C320.763 136.65 322.959 137.605 324.817 138.56C326.704 139.515 328.168 140.737 329.209 142.225C330.251 143.686 330.772 145.68 330.772 148.208C330.772 151.101 330.096 153.601 328.745 155.707C327.393 157.814 325.507 159.443 323.086 160.594C320.693 161.718 317.934 162.28 314.809 162.28Z" fill="#535353"/>
<path d="M385.825 162.28C382.587 162.28 380.067 161.198 378.266 159.036C376.492 156.845 375.605 153.769 375.605 149.809V122.424H371.213V117.789H375.605V101.653H381.771V117.789H392.539V122.424H381.771V149.472C381.771 151.859 382.235 153.685 383.164 154.949C384.093 156.213 385.416 156.845 387.134 156.845C388.795 156.845 390.259 156.381 391.526 155.454L393.088 160.342C392.131 160.932 391.005 161.395 389.71 161.732C388.415 162.097 387.12 162.28 385.825 162.28Z" fill="#535353"/>
<path d="M454.452 162.28C447.892 162.28 443.205 160.805 440.389 157.856C437.574 154.907 436.166 149.977 436.166 143.068V117.789H442.332V141.972C442.332 147.421 443.261 151.312 445.119 153.643C446.977 155.946 450.088 157.098 454.452 157.098C458.844 157.098 461.954 155.946 463.784 153.643C465.643 151.312 466.572 147.421 466.572 141.972V117.789H472.737V143.068C472.737 149.977 471.329 154.907 468.514 157.856C465.727 160.805 461.04 162.28 454.452 162.28Z" fill="#535353"/>
<path d="M539.028 162.28C534.974 162.28 531.314 161.297 528.048 159.331C524.81 157.364 522.234 154.654 520.32 151.199C518.434 147.744 517.491 143.798 517.491 139.36C517.491 134.951 518.434 131.032 520.32 127.606C522.206 124.151 524.768 121.427 528.006 119.432C531.271 117.438 534.974 116.441 539.112 116.441C542.969 116.441 546.46 117.354 549.585 119.18C552.71 121.005 555.159 123.533 556.933 126.763V88.4238H563.098V160.932H556.933V151.831C555.103 155.089 552.611 157.645 549.458 159.499C546.333 161.353 542.856 162.28 539.028 162.28ZM540.506 156.929C543.743 156.929 546.615 156.185 549.12 154.696C551.626 153.179 553.597 151.101 555.033 148.461C556.468 145.792 557.186 142.773 557.186 139.402C557.186 135.976 556.468 132.942 555.033 130.302C553.625 127.634 551.654 125.555 549.12 124.067C546.615 122.55 543.743 121.792 540.506 121.792C537.296 121.792 534.439 122.55 531.933 124.067C529.427 125.555 527.457 127.634 526.021 130.302C524.585 132.942 523.867 135.976 523.867 139.402C523.867 142.801 524.571 145.82 525.979 148.461C527.415 151.101 529.385 153.179 531.891 154.696C534.425 156.185 537.296 156.929 540.506 156.929Z" fill="#535353"/>
<path d="M611.641 160.932V117.789H617.807V160.932H611.641ZM614.766 109.152C614.006 109.152 613.316 108.97 612.697 108.605C612.106 108.239 611.627 107.748 611.261 107.13C610.895 106.512 610.712 105.838 610.712 105.108C610.712 104.377 610.895 103.717 611.261 103.128C611.627 102.51 612.106 102.018 612.697 101.653C613.316 101.288 614.006 101.105 614.766 101.105C615.498 101.105 616.16 101.288 616.751 101.653C617.342 102.018 617.821 102.496 618.187 103.085C618.581 103.675 618.778 104.349 618.778 105.108C618.778 105.838 618.581 106.512 618.187 107.13C617.821 107.748 617.342 108.239 616.751 108.605C616.16 108.97 615.498 109.152 614.766 109.152Z" fill="#535353"/>
<path d="M687.071 162.28C682.566 162.28 678.498 161.311 674.866 159.373C671.263 157.435 668.405 154.738 666.294 151.283C664.182 147.829 663.126 143.854 663.126 139.36C663.126 134.838 664.182 130.864 666.294 127.437C668.405 123.982 671.263 121.286 674.866 119.348C678.47 117.41 682.538 116.441 687.071 116.441C691.575 116.441 695.629 117.41 699.233 119.348C702.865 121.286 705.736 123.982 707.848 127.437C709.959 130.864 711.015 134.838 711.015 139.36C711.015 143.854 709.959 147.829 707.848 151.283C705.736 154.738 702.865 157.435 699.233 159.373C695.629 161.311 691.575 162.28 687.071 162.28ZM687.071 156.803C690.449 156.803 693.461 156.058 696.108 154.57C698.754 153.081 700.837 151.031 702.358 148.419C703.878 145.778 704.638 142.759 704.638 139.36C704.638 135.962 703.878 132.956 702.358 130.344C700.837 127.704 698.754 125.64 696.108 124.151C693.461 122.662 690.449 121.918 687.071 121.918C683.692 121.918 680.68 122.662 678.034 124.151C675.387 125.64 673.304 127.704 671.784 130.344C670.263 132.956 669.503 135.962 669.503 139.36C669.503 142.731 670.263 145.736 671.784 148.376C673.304 151.017 675.387 153.081 678.034 154.57C680.68 156.058 683.692 156.803 687.071 156.803Z" fill="#535353"/>
<path fill-rule="evenodd" clip-rule="evenodd" d="M80.9163 13.8626C81.8752 2.68929 68.1767 -3.80804 59.6604 3.78074L4.72073 52.7379C-3.79595 60.3274 1.73959 74.1003 13.3094 74.1086L35.1682 74.123C38.3559 74.1251 41.4277 72.9659 43.7742 70.875L70.5339 47.0269L70.2325 61.1537C70.0104 71.5259 82.3169 77.4965 90.7528 71.1094L129.572 41.7173C132.58 39.4397 134.371 35.9721 134.45 32.2737L134.857 13.2712C135.079 2.89905 122.774 -3.07151 114.338 3.31554L79.5605 29.6471L80.9163 13.8626Z" fill="#26272B"/>
<path d="M135.232 70.6631L135.232 53.5288C135.232 50.4678 131.609 48.7358 129.103 50.5982L106.041 67.7325C103.151 69.8797 104.717 74.3559 108.359 74.3559H131.421C133.526 74.3559 135.232 72.7026 135.232 70.6631Z" fill="#6C59D9"/>
<path d="M420.579 3.92364C423.239 4.35137 425.754 5.13507 428.123 6.27614C431.54 7.8908 434.474 10.1886 436.925 13.1694C439.439 16.0882 441.405 19.6909 442.824 23.9759C444.242 28.1987 444.952 33.0735 444.952 38.6004C444.952 44.1273 444.242 49.0335 442.824 53.3185C441.405 57.6035 439.439 61.2376 436.925 64.2186C434.474 67.1372 431.572 69.4036 428.22 71.0182C425.85 72.1154 423.32 72.8865 420.628 73.3324C418.782 73.6383 417.194 72.1838 417.194 70.3691V67.2938C417.194 65.6995 418.441 64.3915 420.017 63.9331C421.179 63.5952 422.302 63.1316 423.383 62.5413C425.318 61.4234 426.994 59.8396 428.413 57.7902C429.831 55.6788 430.96 53.0705 431.798 49.9654C432.637 46.7982 433.088 43.0097 433.153 38.6004C433.088 34.1912 432.637 30.434 431.798 27.3289C430.96 24.1618 429.799 21.5535 428.316 19.5042C426.898 17.3927 425.221 15.8089 423.287 14.7531C422.25 14.1544 421.186 13.6897 420.095 13.3582C418.493 12.8717 417.194 11.5514 417.194 9.92536V6.87462C417.194 5.07888 418.751 3.62958 420.579 3.92364Z" fill="#26272B"/>
<path d="M409.891 3.96814C411.736 3.65573 413.325 5.1106 413.325 6.92527V10.0942C413.325 11.6883 412.077 12.995 410.501 13.4533C409.339 13.7913 408.216 14.2564 407.135 14.8467C405.2 15.9025 403.523 17.4549 402.105 19.5042C400.686 21.5535 399.558 24.1618 398.72 27.3289C397.881 30.4961 397.431 34.2533 397.367 38.6004C397.431 43.0096 397.881 46.7982 398.72 49.9654C399.558 53.0705 400.686 55.6788 402.105 57.7902C403.588 59.9017 405.297 61.517 407.231 62.6349C408.266 63.1995 409.329 63.6387 410.419 63.9546C412.027 64.4207 413.325 65.7429 413.325 67.369V70.3645C413.325 72.1806 411.735 73.6353 409.888 73.3247C407.231 72.8778 404.7 72.1096 402.298 71.0182C398.881 69.4036 395.914 67.1372 393.4 64.2186C390.95 61.2376 389.016 57.6035 387.597 53.3185C386.243 49.0335 385.566 44.1273 385.566 38.6004C385.566 33.0736 386.243 28.1987 387.597 23.9759C389.016 19.6909 390.95 16.0882 393.4 13.1694C395.914 10.1887 398.849 7.9223 402.202 6.36975C404.619 5.2274 407.183 4.42663 409.891 3.96814Z" fill="#26272B"/>
<path d="M488.776 4.59885C490.567 4.59891 492.02 6.00628 492.02 7.74166V37.4832C492.02 42.2649 492.342 46.3327 492.986 49.6861C493.631 52.9775 494.567 55.7103 495.792 57.8838C497.017 59.9951 498.467 61.5792 500.144 62.6349C501.057 63.1891 502.025 63.6231 503.046 63.9377C504.645 64.4309 505.948 65.7429 505.948 67.369V70.3645C505.948 72.1807 504.356 73.6386 502.51 73.3216C499.903 72.8741 497.471 72.1059 495.212 71.0182C492.053 69.4036 489.376 67.1372 487.184 64.2186C484.991 61.2376 483.282 57.6035 482.057 53.3185C480.832 49.0335 480.22 44.1273 480.22 38.6004V7.74166C480.22 6.00643 481.673 4.59915 483.464 4.59885H488.776Z" fill="#26272B"/>
<path d="M532.395 4.59885C534.187 4.59885 535.639 6.00625 535.64 7.74166V38.6004C535.64 44.1274 535.027 49.0335 533.802 53.3185C532.577 57.6035 530.836 61.2376 528.579 64.2186C526.387 67.137 523.711 69.4037 520.552 71.0182C518.341 72.1049 515.939 72.8723 513.349 73.3201C511.503 73.6389 509.913 72.1806 509.913 70.3645V67.2846C509.913 65.6944 511.158 64.3966 512.722 63.9132C513.753 63.5945 514.719 63.1686 515.619 62.6349C517.36 61.5791 518.844 59.9953 520.069 57.8838C521.294 55.7725 522.228 53.0708 522.873 49.7798C523.582 46.4263 523.938 42.327 523.938 37.4832V7.74166C523.938 6.00625 525.39 4.59885 527.182 4.59885H532.395Z" fill="#26272B"/>
<path d="M202.693 61.355C205.021 61.355 206.592 63.6611 205.676 65.7347L203.197 71.3466C202.686 72.503 201.514 73.2538 200.215 73.2541H160.942C158.614 73.2541 157.044 70.9481 157.96 68.8745L160.439 63.2625C160.949 62.106 162.123 61.355 163.422 61.355H202.693Z" fill="#26272B"/>
<path d="M232.755 4.59885C234.547 4.59895 235.999 6.00631 236 7.74166V61.6343C236 63.3699 237.452 64.7771 239.244 64.7771H265.543C267.335 64.7771 268.787 66.1842 268.787 67.9199V70.1113C268.787 71.8469 267.334 73.2541 265.543 73.2541H227.444C225.652 73.2539 224.2 71.8467 224.199 70.1113V7.74166C224.2 6.00641 225.652 4.5991 227.444 4.59885H232.755Z" fill="#26272B"/>
<path d="M312.728 4.59885C314.52 4.59885 315.972 6.00625 315.973 7.74166V70.1113C315.973 71.8468 314.52 73.2541 312.728 73.2541H307.612C305.82 73.2541 304.367 71.8468 304.367 70.1113V7.74166C304.368 6.00625 305.82 4.59885 307.612 4.59885H312.728Z" fill="#26272B"/>
<path d="M324.871 4.59885C327.901 4.59885 330.836 4.9409 333.673 5.62395C336.509 6.30704 339.024 7.39459 341.216 8.88492C343.408 10.3753 345.15 12.3313 346.439 14.7531C347.729 17.113 348.373 19.9387 348.373 23.2301C348.373 25.1552 348.052 26.9251 347.407 28.5397C346.762 30.0921 345.957 31.4587 344.99 32.6386C344.023 33.8185 342.894 34.8129 341.604 35.6202C340.955 36.0155 341.081 37.8268 341.793 38.1032C342.113 38.2273 342.437 38.3613 342.764 38.5068C344.44 39.252 345.989 40.308 347.407 41.6741C348.89 43.0403 350.115 44.7174 351.082 46.7045C352.05 48.6296 352.533 50.8659 352.533 53.4121C352.533 56.5169 352.049 59.187 351.082 61.4226C350.115 63.6582 348.89 65.5226 347.407 67.013C345.989 68.4412 344.408 69.5903 342.667 70.4597C340.991 71.2668 339.347 71.888 337.736 72.3226C336.188 72.7573 334.801 73.0363 333.576 73.1605C332.351 73.2226 331.545 73.2541 331.158 73.2541H323.184C321.392 73.2541 319.94 71.8469 319.939 70.1113V68.1992C319.939 66.4635 321.392 65.0564 323.184 65.0564H330.48C333.898 65.0564 336.575 64.0005 338.509 61.8891C340.443 59.7776 341.411 56.9519 341.411 53.4121C341.411 50.0586 340.411 47.2329 338.412 44.9351C336.413 42.6373 333.479 41.4885 329.611 41.4885H323.184C321.392 41.4885 319.94 40.0813 319.939 38.3456V37.0858C319.939 35.35 321.392 33.943 323.184 33.943H324.581C326 33.943 327.451 33.9115 328.934 33.8493C330.417 33.7872 331.803 33.4467 333.093 32.8258C334.382 32.2048 335.414 31.1487 336.188 29.6584C337.026 28.168 337.444 26.0247 337.444 23.2301C337.444 22.1123 337.284 20.9633 336.961 19.7835C336.639 18.5415 335.994 17.424 335.027 16.4304C334.06 15.4368 332.674 14.6283 330.869 14.0073C329.063 13.3863 326.677 13.0759 323.711 13.0758H323.184C321.392 13.0758 319.939 11.6688 319.939 9.93303V7.74166C319.94 6.00625 321.392 4.59885 323.184 4.59885H324.871Z" fill="#26272B"/>
<path d="M580.528 4.59885C582.32 4.59918 583.772 6.00645 583.773 7.74166V70.1113C583.772 71.8466 582.32 73.2538 580.528 73.2541H575.41C573.618 73.254 572.166 71.8468 572.166 70.1113V7.74166C572.166 6.00634 573.618 4.59899 575.41 4.59885H580.528Z" fill="#26272B"/>
<path d="M592.671 4.59885C595.701 4.59892 598.7 5.06538 601.666 5.99685C604.632 6.92838 607.275 8.32636 609.596 10.1893C611.982 12.0523 613.884 14.3187 615.302 16.989C616.785 19.5973 617.526 22.5475 617.526 25.8389C617.526 30.8065 616.335 35.0293 613.949 38.5068C612.241 40.9974 610.102 43.0275 607.533 44.5944C605.882 45.602 605.144 47.6826 606.127 49.3163L617.683 68.5292C618.943 70.6241 617.384 73.2537 614.881 73.2541H610.206C608.999 73.2541 607.891 72.605 607.331 71.5692L595.063 48.8713C594.9 48.5706 594.591 48.3747 594.249 48.4462C594.174 48.4618 594.083 48.4753 594.006 48.4754H590.982C589.191 48.4754 587.738 47.0681 587.738 45.3326V43.4205C587.738 41.6848 589.19 40.2777 590.982 40.2777H594.314C595.732 40.2777 597.152 40.0602 598.57 39.6255C599.989 39.1287 601.278 38.3517 602.439 37.296C603.599 36.2403 604.535 34.7808 605.244 32.9179C605.953 30.9929 606.307 28.6331 606.307 25.8389C606.307 24.7211 606.147 23.4476 605.824 22.0193C605.502 20.5289 604.825 19.131 603.793 17.8269C602.826 16.4607 601.439 15.3432 599.633 14.4738C597.828 13.5425 595.442 13.0758 592.476 13.0758H590.982C589.19 13.0758 587.738 11.6688 587.738 9.93303V7.74166C587.738 6.00625 589.191 4.59885 590.982 4.59885H592.671Z" fill="#26272B"/>
<path d="M664.639 4.59885C666.431 4.59885 667.883 6.00625 667.883 7.74166V70.1113C667.883 71.8468 666.431 73.2541 664.639 73.2541H659.329C657.537 73.2541 656.085 71.8468 656.085 70.1113V7.74166C656.085 6.00625 657.537 4.59885 659.329 4.59885H664.639Z" fill="#26272B"/>
<path d="M704.39 4.59885C706.182 4.59885 707.634 6.00625 707.635 7.74166V70.1113C707.634 71.8468 706.182 73.2541 704.39 73.2541H697.718C696.554 73.2541 695.479 72.6502 694.901 71.672L672.278 33.3644C671.997 32.8894 671.849 32.3511 671.849 31.8038V23.0598C671.849 19.8361 676.261 18.7025 677.911 21.5022L689.773 41.6327C691.423 44.4324 695.836 43.2988 695.836 40.0751V7.74166C695.836 6.00625 697.289 4.59885 699.08 4.59885H704.39Z" fill="#26272B"/>
<path d="M774.589 61.355C776.917 61.3554 778.488 63.6613 777.572 65.7347L775.093 71.3466C774.582 72.5031 773.408 73.254 772.11 73.2541H732.837C730.509 73.2538 728.938 70.9479 729.854 68.8745L732.333 63.2625C732.844 62.106 734.018 61.3551 735.316 61.355H774.589Z" fill="#26272B"/>
<path d="M182.042 32.9716C184.407 32.9718 185.977 35.346 184.988 37.428L182.718 42.2112C182.189 43.3264 181.037 44.042 179.77 44.042H161.088C158.723 44.0417 157.153 41.6676 158.142 39.5856L160.412 34.8023C160.941 33.6872 162.093 32.9716 163.36 32.9716H182.042Z" fill="#26272B"/>
<path d="M753.936 32.9716C756.302 32.9716 757.873 35.3459 756.884 37.428L754.613 42.2112C754.083 43.3262 752.933 44.0418 751.666 44.042H732.984C730.619 44.042 729.048 41.6677 730.036 39.5856L732.306 34.8023C732.836 33.6872 733.987 32.9716 735.254 32.9716H753.936Z" fill="#26272B"/>
<path d="M202.693 4.59885C205.021 4.59885 206.592 6.9049 205.676 8.97852L203.197 14.5905C202.686 15.7465 201.513 16.4962 200.215 16.4964H160.942C158.614 16.4963 157.044 14.1917 157.96 12.1183L160.439 6.50633C160.95 5.34983 162.123 4.59885 163.422 4.59885H202.693Z" fill="#26272B"/>
<path d="M774.589 4.59885C776.917 4.59935 778.486 6.90512 777.57 8.97852L775.093 14.5905C774.582 15.7469 773.408 16.4964 772.11 16.4964H732.837C730.509 16.4959 728.94 14.1916 729.856 12.1183L732.333 6.50633C732.844 5.34985 734.018 4.59888 735.316 4.59885H774.589Z" fill="#26272B"/>
</svg>
